<svg xmlns="http://www.w3.org/2000/svg" viewBox="0 0 256 256" fill="none" role="img" aria-label="Grok">
  <!-- White mark for dark UI -->
  <g fill="#FFFFFF">
    <path
      fill-rule="evenodd"
      d="
        M128 18
        c60.8 0 110 49.2 110 110
        s-49.2 110 -110 110
        S18 188.8 18 128
        67.2 18 128 18
        Z
        M128 70
        c-32 0 -58 26 -58 58
        s26 58 58 58
        58 -26 58 -58
        -26 -58 -58 -58
        Z
      "
    />
    <path
      d="
        M 20 224
        C 15.5 219.5 15 212 19.5 207
        L 207 19.5
        C 212 15 219.5 15.5 224 20
        C 228.5 24.5 229 32 224.5 37
        L 37 224.5
        C 32 229 24.5 228.5 20 224
        Z
      "
    />
  </g>
</svg>
