<svg xmlns="http://www.w3.org/2000/svg" viewBox="0 0 256 256" role="img" aria-label="Grok Build">
  <rect width="256" height="256" rx="48" fill="#4A6B70"/>
  <g transform="translate(28 28) scale(0.78125)" fill="#FFFFFF">
    <path fill-rule="evenodd" d="M128 18c60.8 0 110 49.2 110 110s-49.2 110-110 110S18 188.8 18 128 67.2 18 128 18zm0 52c-32 0-58 26-58 58s26 58 58 58 58-26 58-58-26-58-58-58z"/>
    <path d="M20 224c-4.5-4.5-5-12-0.5-17L207 19.5C212 15 219.5 15.5 224 20c4.5 4.5 5 12 0.5 17L37 224.5C32 229 24.5 228.5 20 224z"/>
  </g>
</svg>
